<svg xmlns="http://www.w3.org/2000/svg" width="512" height="512" viewBox="0 0 108 108" role="img" aria-labelledby="title desc">
  <title id="title">Daily Sitting logo</title>
  <desc id="desc">A calm sage circle containing a simple meditation cushion and subtle resonance lines.</desc>
  <circle cx="54" cy="54" r="54" fill="#4F6F52"/>
  <path d="M54 20c18.8 0 34 15.2 34 34S72.8 88 54 88 20 72.8 20 54s15.2-34 34-34z" fill="none" stroke="#D2E8CE" stroke-opacity="0.36" stroke-width="4"/>
  <path d="M28 60c2-4 8-4.4 14-1.6 8.4 4 15.6 4 24 0 6-2.8 12-2.4 14 1.6-4 10.2-14.2 16-26 16S32 70.2 28 60z" fill="#FFF8F0"/>
  <path d="M35 60c8.8 5.2 29.2 5.2 38 0" fill="none" stroke="#4F6F52" stroke-opacity="0.56" stroke-linecap="round" stroke-width="3"/>
  <path d="M38 64c7 3.4 25 3.4 32 0-3.6 4.2-9 6.4-16 6.4S41.6 68.2 38 64z" fill="#4F6F52" fill-opacity="0.18"/>
  <path d="M43 48c6.2-1.2 15.8-1.2 22 0" fill="none" stroke="#FFF8F0" stroke-opacity="0.74" stroke-linecap="round" stroke-width="3.5"/>
  <path d="M49 35c3-0.5 7-0.5 10 0" fill="none" stroke="#E8E3BD" stroke-opacity="0.64" stroke-linecap="round" stroke-width="2"/>
</svg>
